<?xml version="1.0" encoding="UTF-8"?>
<svg id="Layer_1" data-name="Layer 1" xmlns="http://www.w3.org/2000/svg" viewBox="0 0 1250 595.15">
  <defs>
    <style>
      .cls-1 {
        fill: #0fc28d;
      }

      .cls-2 {
        fill: #113f55;
      }

      .cls-3 {
        fill: #0a7c87;
      }
    </style>
  </defs>
  <polygon class="cls-3" points="1189.52 115.6 1157.84 89.5 1139.41 64.18 1114.72 0 1090.04 64.18 1069.05 93 1041.62 115.6 981.24 141.85 1041.62 168.11 1074.75 195.38 1090.16 216.53 1114.84 280.71 1139.52 216.53 1152.65 198.45 1189.52 168.11 1249.89 141.85 1189.52 115.6"/>
  <g>
    <path class="cls-2" d="M930.1,234.46c-75.26,15.93-152.64,17.03-228.28,3.22l-170.77-31.17-117.03-24.22c-88.91-18.4-180.23-19.31-269.45-2.7L0,206.52v190.85l84.97-33.26c127.09-49.74,264.56-61.51,397.5-34.04l48.57,10.04,79.86,14.57c133.38,24.33,270.59,2.08,391.09-63.44l60.1-32.68v-52.05l-132,27.94Z"/>
    <path class="cls-1" d="M610.18,362.67l-79.94-13.88-48.94-10.41c-130.52-27.76-269.2-15.61-396.45,34.7L0,406.04v189.11l86.47-46.84c125.62-72.87,263.52-105.55,396.45-78.07l41.89,10.36c7.42,1.84,14.89,3.47,22.41,4.9l40.95,7.79c92.02,17.5,187.37,6.18,272.26-33.4,27.68-12.91,55.98-28.55,86.67-46.86,30.78-18.36,59.43-40.52,85.49-65.83l29.51-28.66v-52.05l-60.37,33.73c-120.73,64.19-257.78,86.75-391.56,62.46Z"/>
  </g>
</svg>