<?xml version="1.0" encoding="UTF-8"?>
<svg id="Layer_1" data-name="Layer 1" xmlns="http://www.w3.org/2000/svg" viewBox="0 0 1241.88 580.35">
  <defs>
    <style>
      .cls-1 {
        fill: #0fc28d;
      }

      .cls-2 {
        fill: #113f55;
      }

      .cls-3 {
        fill: #0a7c87;
      }
    </style>
  </defs>
  <path class="cls-2" d="M0,501.54v-178.68h90.72c18.85,0,32.6,4.76,41.23,14.27s12.96,20.38,12.96,32.6c0,8.9-2.51,16.95-7.53,24.15-5.02,7.2-12.5,12.15-22.45,14.86,23.12,5.58,34.69,19.46,34.69,41.63,0,13.27-4.08,25.11-12.24,35.54-8.16,10.43-25.59,15.64-52.3,15.64H0ZM50.53,391.32h25.4c6.37,0,10.87-1.62,13.48-4.84s3.93-6.68,3.93-10.34c0-9.95-6.11-14.92-18.33-14.92h-24.48v30.11ZM50.53,461.74h26.7c6.63,0,11.5-1.64,14.6-4.91,3.1-3.27,4.65-6.96,4.65-11.06s-1.51-7.88-4.52-11.32c-3.01-3.45-8.53-5.17-16.56-5.17h-24.87v32.46Z"/>
  <path class="cls-2" d="M249.5,504.29c-25.13,0-45.62-8.33-61.46-25-15.84-16.67-23.76-38.97-23.76-66.89s7.57-48.76,22.71-66.17c15.14-17.41,36.15-26.12,63.03-26.12,24.87,0,45.14,8.2,60.8,24.61,15.66,16.41,23.5,38.31,23.5,65.71s-7.9,51.1-23.69,68.2c-15.8,17.1-36.17,25.66-61.13,25.66ZM249.24,463.71c9.25,0,15.9-4.04,19.96-12.11s6.09-22.84,6.09-44.31c0-31.07-8.33-46.6-25-46.6-17.98,0-26.97,17.72-26.97,53.15,0,33.25,8.64,49.87,25.92,49.87Z"/>
  <path class="cls-2" d="M516.55,501.54h-60.8l-26.1-68.33h-17.3v68.33h-54.85v-178.68h93.33c20.6,0,36.59,4.82,47.98,14.46,11.39,9.64,17.08,22.36,17.08,38.16,0,10.3-2.09,19.39-6.28,27.29s-12.65,14.86-25.4,20.88l32.33,77.89ZM412.35,394.98h23.43c6.89,0,12.44-1.44,16.62-4.32s6.28-7.11,6.28-12.7c0-11.43-7.03-17.15-21.08-17.15h-25.26v34.17Z"/>
  <path class="cls-2" d="M676.9,458.86v42.67h-134.44v-178.68h134.44v41.23h-80.64v25.92h65.19v39.66h-65.19v29.19h80.64Z"/>
  <path class="cls-2" d="M797.16,501.54l-10.1-35.21h-47.87l-10.73,35.21h-44.53l55.16-178.68h57.99l56.04,178.68h-55.97ZM748.52,427.31h28.91l-14.46-51.83-14.45,51.83Z"/>
  <path class="cls-2" d="M994.87,457.68v43.85h-125.27v-178.68h54.85v134.83h70.43Z"/>
  <path class="cls-2" d="M1068.83,322.85v178.68h-54.85v-178.68h54.85Z"/>
  <path class="cls-2" d="M1081.53,449.83l50.92-9.16c4.28,14.4,15.27,21.6,32.99,21.6,13.79,0,20.68-3.67,20.68-11,0-3.84-1.59-6.83-4.78-8.97-3.19-2.14-8.88-4.03-17.08-5.69-31.34-6.01-51.45-13.85-60.35-23.54-8.9-9.69-13.35-21.08-13.35-34.18,0-16.85,6.39-30.86,19.18-42.03,12.78-11.17,31.18-16.76,55.18-16.76,36.39,0,60.43,14.62,72.13,43.85l-45.42,13.74c-4.71-11.96-14.27-17.93-28.67-17.93-11.96,0-17.93,3.71-17.93,11.13,0,3.32,1.35,5.89,4.06,7.72,2.7,1.83,7.94,3.57,15.71,5.23,21.39,4.52,36.57,8.52,45.56,12,8.99,3.48,16.49,9.43,22.51,17.86,6.02,8.43,9.03,18.36,9.03,29.8,0,18.08-7.33,32.73-21.99,43.95-14.66,11.22-33.9,16.83-57.73,16.83-43.55,0-70.43-18.15-80.64-54.46Z"/>
  <polygon class="cls-3" points="1211.5 57.97 1195.61 44.89 1186.36 32.19 1173.98 0 1161.6 32.19 1151.08 46.64 1137.32 57.97 1107.04 71.14 1137.32 84.31 1153.94 97.99 1161.66 108.6 1174.04 140.79 1186.42 108.6 1193.01 99.53 1211.5 84.31 1241.78 71.14 1211.5 57.97"/>
  <g>
    <path class="cls-2" d="M1081.39,117.59c-37.75,7.99-76.55,8.54-114.49,1.62l-85.65-15.63-58.69-12.15c-44.59-9.23-90.39-9.69-135.14-1.35l-72.51,13.5v95.72l42.62-16.68c63.74-24.95,132.69-30.85,199.36-17.07l24.36,5.04,40.05,7.31c66.9,12.2,135.71,1.04,196.14-31.81l30.14-16.39v-26.1l-66.2,14.02Z"/>
    <path class="cls-1" d="M920.94,181.89l-40.09-6.96-24.55-5.22c-65.46-13.92-135.01-7.83-198.83,17.4l-42.55,16.53v94.85l43.37-23.49c63-36.55,132.16-52.94,198.83-39.16l21.01,5.19c3.72.92,7.47,1.74,11.24,2.46l20.54,3.9c46.15,8.78,93.97,3.1,136.55-16.75,13.88-6.47,28.07-14.32,43.47-23.5,15.44-9.21,29.8-20.32,42.87-33.01l14.8-14.38v-26.1l-30.27,16.92c-60.55,32.2-129.28,43.51-196.38,31.33Z"/>
  </g>
  <g>
    <path class="cls-1" d="M124.88,564.86l8.21-1.39c3.3,7.41,10.46,11.11,21.48,11.11,5.76,0,10.09-.91,13-2.74,2.91-1.82,4.37-4.27,4.37-7.33,0-2.32-1.11-4.18-3.33-5.59-2.22-1.41-4.79-2.38-7.7-2.92l-14.55-2.68c-3.77-.72-6.85-1.59-9.25-2.61-2.4-1.02-4.43-2.6-6.1-4.73-1.67-2.13-2.5-4.56-2.5-7.3,0-4.55,2.29-8.17,6.87-10.87,4.58-2.7,10.46-4.05,17.64-4.05,13.22,0,21.9,4.47,26.06,13.42l-8.26,1.83c-.96-3.19-3.22-5.6-6.77-7.23-3.55-1.63-7.34-2.45-11.35-2.45s-7.52.79-10.63,2.36c-3.11,1.57-4.66,3.8-4.66,6.68,0,4.03,3.94,6.75,11.82,8.16l13.6,2.38c12.43,2.23,18.65,7.24,18.65,15.02,0,4.7-2.34,8.61-7.01,11.73-4.67,3.12-11.25,4.68-19.74,4.68-15.06,0-25.01-5.16-29.84-15.49Z"/>
    <path class="cls-1" d="M257.88,579.23h-9.11v-25.89h-33.73v25.89h-9.11v-54.36h9.11v22.5h33.73v-22.5h9.11v54.36Z"/>
    <path class="cls-1" d="M312.07,580.35c-9.34,0-16.63-2.72-21.85-8.15-5.22-5.43-7.83-12.09-7.83-19.99s2.74-15.04,8.21-20.4c5.47-5.37,12.72-8.05,21.74-8.05s16.2,2.64,21.64,7.91c5.44,5.27,8.15,11.92,8.15,19.95s-2.64,14.42-7.91,20.15c-5.28,5.73-12.66,8.59-22.14,8.59ZM312.28,574.81c6.36,0,11.33-2.17,14.92-6.5,3.59-4.33,5.38-9.91,5.38-16.74s-1.86-12.48-5.57-16.38c-3.71-3.91-8.64-5.86-14.79-5.86s-11.16,2.11-14.81,6.34c-3.66,4.22-5.49,9.75-5.49,16.58s1.85,12.1,5.54,16.28c3.69,4.19,8.63,6.28,14.81,6.28Z"/>
    <path class="cls-1" d="M375.85,579.23h-9.11v-54.36h25.79c8.06,0,14.02,1.64,17.85,4.92,3.84,3.28,5.76,7.02,5.76,11.21,0,4.67-2.09,8.54-6.26,11.59-4.17,3.05-9.64,4.58-16.39,4.58h-17.64v22.06ZM375.85,551.52h16.73c4.3,0,7.76-.96,10.39-2.89,2.63-1.92,3.94-4.47,3.94-7.63,0-2.71-1.17-5.12-3.52-7.25s-5.74-3.19-10.18-3.19h-17.37v20.95Z"/>
    <path class="cls-1" d="M498.82,579.23h-9.11v-48.39h-20.84v-5.97h50.84v5.97h-20.89v48.39Z"/>
    <path class="cls-1" d="M592.71,579.23h-9.11v-25.89h-33.73v25.89h-9.11v-54.36h9.11v22.5h33.73v-22.5h9.11v54.36Z"/>
    <path class="cls-1" d="M668.85,573.26v5.97h-47.06v-54.36h46.04v5.97h-36.93v17.28h29.31v5.54h-29.31v19.59h37.94Z"/>
    <path class="cls-1" d="M784.25,579.23h-8.85l-37.62-47.39.11,3.58c.11,1.35.16,2.5.16,3.42v40.38h-7.35v-54.36h11.4l35.17,44.3-.11-3.78c-.07-1.49-.11-2.8-.11-3.94v-36.58h7.19v54.36Z"/>
    <path class="cls-1" d="M838.44,580.35c-9.34,0-16.63-2.72-21.85-8.15-5.22-5.43-7.83-12.09-7.83-19.99s2.74-15.04,8.21-20.4c5.47-5.37,12.72-8.05,21.74-8.05s16.2,2.64,21.64,7.91c5.44,5.27,8.15,11.92,8.15,19.95s-2.64,14.42-7.91,20.15c-5.28,5.73-12.66,8.59-22.14,8.59ZM838.65,574.81c6.36,0,11.33-2.17,14.92-6.5,3.59-4.33,5.38-9.91,5.38-16.74s-1.86-12.48-5.57-16.38c-3.71-3.91-8.64-5.86-14.79-5.86s-11.16,2.11-14.81,6.34c-3.66,4.22-5.49,9.75-5.49,16.58s1.85,12.1,5.54,16.28c3.69,4.19,8.63,6.28,14.81,6.28Z"/>
    <path class="cls-1" d="M945.43,579.23h-9.55l-13.41-23.54h-20.84v23.54h-8.53v-54.36h28.67c7.78,0,13.54,1.59,17.29,4.76,3.75,3.17,5.62,6.65,5.62,10.41,0,2.89-1.05,5.67-3.14,8.32-2.1,2.65-5.56,4.55-10.39,5.69l14.28,25.17ZM901.63,550.16h19.02c5.01,0,8.75-.99,11.22-2.97,2.47-1.98,3.7-4.4,3.7-7.27s-1.31-5.1-3.92-6.69c-2.61-1.59-5.91-2.39-9.88-2.39h-20.14v19.31Z"/>
    <path class="cls-1" d="M992,579.23h-9.11v-48.39h-20.84v-5.97h50.84v5.97h-20.89v48.39Z"/>
    <path class="cls-1" d="M1085.88,579.23h-9.11v-25.89h-33.73v25.89h-9.11v-54.36h9.11v22.5h33.73v-22.5h9.11v54.36Z"/>
  </g>
</svg>